<?xml version="1.0" standalone="no"?>
<!DOCTYPE svg PUBLIC "-//W3C//DTD SVG 20010904//EN"
 "http://www.w3.org/TR/2001/REC-SVG-20010904/DTD/svg10.dtd">
<svg version="1.0" xmlns="http://www.w3.org/2000/svg"
 width="226.000000pt" height="223.000000pt" viewBox="0 0 226.000000 223.000000"
 preserveAspectRatio="xMidYMid meet">

<g transform="translate(0.000000,223.000000) scale(0.100000,-0.100000)"
fill="#000000" stroke="none">
<path d="M240 1770 l0 -250 253 2 252 3 3 248 2 247 -255 0 -255 0 0 -250z
m410 5 l0 -175 -172 2 -173 3 -3 160 c-1 87 0 165 2 172 4 10 46 13 176 13
l170 0 0 -175z"/>
<path d="M372 1783 l3 -108 108 -3 107 -3 0 111 0 110 -110 0 -111 0 3 -107z"/>
<path d="M807 2013 c-4 -3 -7 -19 -7 -35 0 -26 3 -28 40 -28 39 0 40 -1 40
-35 0 -33 2 -35 36 -35 35 0 35 -1 32 -37 -3 -35 -6 -38 -36 -41 -31 -3 -33
-6 -30 -35 3 -28 7 -32 36 -35 29 -3 32 -6 32 -38 0 -32 -2 -34 -35 -34 -33 0
-35 -2 -35 -35 0 -33 -2 -35 -35 -35 -33 0 -35 -2 -35 -35 l0 -35 70 0 70 0 0
35 0 35 75 0 75 0 0 -69 0 -70 -32 -3 c-28 -3 -34 -8 -38 -33 -5 -27 -9 -30
-40 -30 -32 0 -35 3 -38 33 l-3 32 -70 0 -69 0 0 -35 c0 -34 -1 -35 -40 -35
-40 0 -40 0 -40 -38 0 -37 -1 -39 -32 -38 -30 1 -33 -2 -33 -29 l-1 -30 -72
-3 -72 -3 0 -34 c0 -32 -3 -35 -29 -35 -26 0 -30 4 -33 33 -3 29 -6 32 -41 35
l-38 3 3 62 c3 62 3 62 35 65 29 3 32 1 35 -30 3 -29 7 -33 36 -36 31 -3 32
-2 32 32 0 20 3 36 8 37 19 2 67 11 68 12 1 1 -1 17 -3 35 -5 30 -8 33 -37 30
-27 -3 -32 -7 -36 -38 -4 -31 -9 -35 -37 -38 -32 -3 -33 -2 -33 37 0 40 -1 41
-35 41 -33 0 -35 -2 -35 -35 l0 -35 -70 0 -70 0 0 -75 0 -75 69 0 70 0 3 -32
c3 -29 7 -33 36 -36 l32 -3 0 -70 0 -70 -32 3 c-30 3 -33 6 -36 41 -3 30 -7
37 -18 33 -9 -3 -24 -6 -34 -6 -14 0 -20 -9 -22 -32 -3 -29 -7 -33 -35 -36
-30 -3 -33 -6 -33 -37 0 -31 3 -34 33 -37 28 -3 32 -6 32 -33 0 -27 -4 -30
-32 -33 -30 -3 -33 -6 -33 -38 0 -32 2 -34 34 -34 32 0 35 3 38 33 3 28 7 32
36 35 31 3 32 3 32 -38 l0 -41 38 3 c35 3 37 5 40 40 3 36 2 37 -35 40 -35 3
-38 5 -38 33 0 27 3 30 38 33 35 3 37 5 37 38 l0 34 70 0 70 0 0 35 c0 33 2
35 35 35 l35 0 0 69 0 70 33 3 c29 3 32 6 35 41 l3 37 145 0 144 0 0 35 0 35
105 0 105 0 0 -70 c0 -55 3 -70 15 -71 8 0 41 -1 73 -1 l57 -1 3 37 c3 34 5
36 37 36 31 0 34 3 37 33 3 28 6 32 33 32 27 0 30 3 33 38 3 36 3 37 -32 37
-34 0 -36 -2 -36 -35 l0 -36 -107 3 -108 3 0 65 0 65 33 3 c29 3 32 6 32 38 0
33 1 34 41 34 39 0 40 -1 37 -32 -3 -29 -7 -34 -38 -38 -31 -4 -35 -8 -35 -35
0 -27 3 -30 38 -33 36 -3 37 -3 37 32 0 34 2 36 35 36 33 0 35 2 35 35 0 33
-2 35 -35 35 -33 0 -35 2 -35 34 0 33 -2 35 -37 38 l-38 3 0 65 0 65 73 3 72
3 0 34 c0 32 -2 34 -37 37 -36 3 -38 5 -41 40 -3 34 -5 36 -35 35 -30 -2 -32
0 -35 36 -3 35 -5 37 -38 37 -32 0 -34 -2 -34 -34 0 -32 3 -35 33 -38 l32 -3
3 -73 3 -73 -33 3 c-29 3 -33 7 -36 35 -3 28 -7 32 -35 35 -28 3 -32 7 -35 36
-3 29 -6 32 -38 32 -32 0 -34 -2 -34 -35 0 -33 2 -35 36 -35 34 0 35 -1 32
-32 -3 -29 -7 -33 -35 -36 -28 -3 -32 -7 -35 -35 l-3 -32 -69 0 c-61 0 -69 2
-72 20 -6 37 6 55 37 55 27 0 29 3 29 35 0 33 -2 35 -36 35 -34 0 -35 1 -32
33 3 28 7 32 36 35 29 3 32 6 32 38 0 32 -2 34 -35 34 -33 0 -35 -2 -35 -35 0
-33 -2 -35 -35 -35 -33 0 -35 2 -35 35 0 33 -2 35 -33 35 -19 0 -37 -3 -40 -7z
m433 -249 c0 -34 -1 -35 -32 -32 -29 3 -33 7 -36 36 -3 31 -2 32 32 32 35 0
36 -1 36 -36z m-70 -104 l0 -70 35 0 c32 0 35 -2 35 -30 0 -28 -3 -30 -35 -30
-32 0 -35 2 -35 30 0 28 -3 30 -35 30 l-35 0 0 70 0 70 35 0 35 0 0 -70z
m-790 -676 c0 -34 -1 -35 -32 -32 -54 5 -53 68 2 68 28 0 30 -3 30 -36z"/>
<path d="M1530 1765 l0 -245 250 0 250 0 0 245 0 245 -250 0 -250 0 0 -245z
m420 5 l0 -170 -175 0 -176 0 1 170 2 170 174 0 174 0 0 -170z"/>
<path d="M1670 1770 l0 -110 110 0 110 0 0 110 0 110 -110 0 -110 0 0 -110z"/>
<path d="M1747 1443 c-4 -3 -7 -19 -7 -35 l0 -28 -70 0 -70 0 0 -35 c0 -33 -2
-35 -35 -35 l-35 0 0 -70 0 -69 -72 -3 -73 -3 0 -70 0 -70 73 -3 72 -3 0 -34
c0 -34 1 -35 40 -35 39 0 40 1 40 35 l0 36 68 -3 67 -3 3 -32 c3 -30 6 -33 38
-33 32 0 34 2 34 35 0 33 -2 35 -35 35 -33 0 -35 2 -35 35 l0 35 70 0 70 0 0
-70 0 -71 73 3 72 3 0 70 -1 70 -72 3 -72 3 0 29 c0 33 -1 32 83 30 l57 -1 0
75 0 76 -70 0 -70 0 0 35 c0 33 2 35 35 35 33 0 35 2 35 35 0 33 -2 35 -35 35
-33 0 -35 -2 -35 -35 0 -33 -2 -35 -35 -35 -33 0 -35 2 -35 35 0 33 -2 35 -33
35 -19 0 -37 -3 -40 -7z m73 -108 c0 -33 2 -35 35 -35 l35 0 0 -65 0 -65 -73
0 -74 0 5 30 c4 29 3 30 -32 30 -34 0 -36 1 -36 35 0 33 2 35 35 35 33 0 35 2
35 35 0 33 2 35 35 35 33 0 35 -2 35 -35z m-220 -245 l0 -70 -35 0 -35 0 0 70
0 70 35 0 35 0 0 -70z"/>
<path d="M880 1195 l0 -35 -70 0 -69 0 -3 -67 -3 -68 -32 -3 c-28 -3 -32 -7
-35 -35 l-3 -32 -67 -3 -68 -3 0 -69 0 -70 110 0 110 0 0 34 c0 33 -2 35 -37
38 -35 3 -38 6 -38 33 0 26 4 30 32 33 28 3 32 7 35 35 l3 32 68 3 67 3 0 -35
c0 -32 -3 -35 -32 -38 l-33 -3 -3 -67 -3 -67 73 -3 73 -3 3 -67 3 -68 -36 0
c-33 0 -35 2 -35 35 0 33 -2 35 -35 35 -34 0 -35 -1 -35 -40 0 -39 1 -40 36
-40 36 0 37 0 31 -35 -6 -35 -6 -35 33 -35 38 0 39 1 42 37 l3 38 68 -1 67 -1
0 73 0 74 -70 0 -70 0 0 105 0 106 68 -3 67 -3 3 -32 c3 -32 2 -33 -32 -33
-34 0 -36 -2 -36 -35 0 -33 2 -35 34 -35 32 0 35 3 38 33 3 28 7 32 35 35 27
3 33 -1 39 -22 3 -14 3 -29 0 -35 -4 -6 9 -11 31 -13 36 -3 38 -5 41 -41 3
-37 4 -38 40 -35 35 3 37 5 37 38 0 32 3 35 32 38 l33 3 2 -178 3 -178 35 0
c32 0 35 -2 35 -30 0 -27 -3 -30 -37 -33 -36 -3 -38 -5 -38 -38 0 -35 1 -35
38 -32 34 3 37 6 40 36 3 31 6 33 35 30 28 -3 32 -7 35 -35 3 -32 2 -33 -37
-33 l-41 0 0 -40 0 -40 40 0 c39 0 40 -1 40 -35 0 -33 2 -35 35 -35 33 0 35 2
35 35 0 33 -2 35 -36 35 -35 0 -35 1 -32 37 3 34 6 37 33 38 27 0 30 3 33 38
3 37 3 37 -33 37 -35 0 -36 1 -33 33 2 23 8 32 21 31 9 -1 56 -2 103 -3 l85
-1 -3 -32 c-3 -29 -7 -33 -35 -36 -30 -3 -33 -6 -33 -38 0 -31 2 -34 30 -34
28 0 30 -3 30 -35 0 -32 -2 -35 -30 -35 -28 0 -30 -3 -30 -35 0 -33 2 -35 35
-35 33 0 35 2 35 35 0 33 2 35 34 35 32 0 35 3 38 32 3 29 6 33 33 33 27 0 30
-4 33 -32 3 -30 6 -33 38 -33 32 0 34 -2 34 -35 0 -33 2 -35 35 -35 33 0 35 2
35 34 0 32 -3 35 -32 38 -29 3 -33 7 -36 35 -3 32 -2 33 32 33 34 0 36 2 36
35 0 33 -2 35 -35 35 -33 0 -35 -2 -35 -35 0 -33 -2 -35 -35 -35 l-35 0 0 105
0 105 75 0 76 0 -3 73 -3 72 -70 5 c-70 5 -70 5 -70 35 -1 27 -4 30 -38 33
l-37 3 0 -40 c0 -40 -1 -41 -35 -41 l-34 0 -3 73 -3 72 -172 3 -173 2 0 35 c0
34 -1 35 -40 35 -39 0 -40 1 -40 35 0 33 -2 35 -34 35 -32 0 -35 -3 -38 -32
-3 -29 -7 -33 -35 -36 -32 -3 -33 -2 -33 37 l0 41 -40 0 c-38 0 -40 2 -40 29
0 26 4 30 33 33 28 3 32 7 35 36 l3 32 -105 0 -106 0 0 35 c0 34 -1 35 -40 35
-39 0 -40 -1 -40 -35z m78 -102 l-3 -68 -32 -3 -33 -3 0 70 0 71 35 0 36 0 -3
-67z m362 -178 c0 -33 -2 -35 -35 -35 -33 0 -35 2 -35 35 0 33 2 35 35 35 33
0 35 -2 35 -35z m348 -212 l-3 -108 -105 0 -105 0 -3 108 -3 107 111 0 111 0
-3 -107z m220 -40 l-3 -68 -67 -3 -68 -3 0 36 c0 33 2 35 35 35 33 0 35 2 35
35 0 33 2 35 35 35 l36 0 -3 -67z m-70 -245 c-3 -29 -7 -33 -35 -36 -30 -3
-33 -1 -33 26 0 36 6 42 42 42 27 0 29 -3 26 -32z"/>
<path d="M1530 705 c0 -33 2 -35 35 -35 33 0 35 2 35 35 0 33 -2 35 -35 35
-33 0 -35 -2 -35 -35z"/>
<path d="M1970 845 c0 -32 2 -35 30 -35 28 0 30 3 30 35 0 32 -2 35 -30 35
-28 0 -30 -3 -30 -35z"/>
<path d="M242 488 l3 -243 248 -3 247 -2 0 245 0 245 -250 0 -250 0 2 -242z
m409 10 c0 -87 0 -165 -1 -173 0 -13 -26 -15 -170 -15 l-170 0 0 168 c0 93 3
171 6 175 3 3 80 5 171 4 l165 -2 -1 -157z"/>
<path d="M374 488 l1 -103 108 -3 107 -3 0 106 0 105 -108 0 -109 0 1 -102z"/>
<path d="M1177 653 c-4 -3 -7 -35 -7 -70 l0 -63 -34 0 -33 0 -2 -70 -2 -69 73
-3 73 -3 3 -32 c3 -30 6 -33 38 -33 19 0 34 3 35 8 0 4 3 19 5 35 4 26 3 27
-36 27 l-40 0 0 65 0 65 35 0 35 0 0 75 0 75 -68 0 c-38 0 -72 -3 -75 -7z"/>
<path d="M838 592 c-24 -3 -28 -8 -28 -38 0 -32 2 -34 35 -34 33 0 35 -2 35
-35 0 -33 -2 -35 -35 -35 -34 0 -35 -1 -35 -40 0 -39 1 -40 35 -40 35 0 35 0
35 -45 l0 -45 75 0 75 0 0 120 0 119 -72 3 c-73 3 -73 3 -76 33 -4 37 -10 42
-44 37z"/>
<path d="M1320 275 c0 -34 1 -35 40 -35 36 0 39 2 36 23 -3 12 -5 28 -5 35 -1
7 -15 12 -36 12 -33 0 -35 -2 -35 -35z"/>
</g>
</svg>
