<?xml version="1.0" standalone="no"?>
<!DOCTYPE svg PUBLIC "-//W3C//DTD SVG 20010904//EN"
 "http://www.w3.org/TR/2001/REC-SVG-20010904/DTD/svg10.dtd">
<svg version="1.0" xmlns="http://www.w3.org/2000/svg"
 width="810.000000pt" height="810.000000pt" viewBox="0 0 810.000000 810.000000"
 preserveAspectRatio="xMidYMid meet">

<g transform="translate(0.000000,810.000000) scale(0.100000,-0.100000)"
fill="#000000" stroke="none">
<path d="M1985 7580 c-138 -16 -236 -76 -272 -168 -17 -44 -18 -108 -23 -1122
-3 -591 -8 -1064 -12 -1050 -4 14 -8 42 -8 63 0 51 -16 39 -24 -19 -5 -36 0
-62 19 -116 47 -131 53 -301 11 -347 -9 -10 -16 -23 -16 -29 0 -7 -4 -12 -9
-12 -4 0 -5 -19 0 -42 14 -74 13 -78 -28 -79 -83 -2 -93 -12 -97 -91 l-2 -37
50 2 c45 2 51 -1 71 -29 26 -39 55 -128 64 -197 8 -67 -15 -218 -42 -278 -19
-41 -29 -49 -92 -77 -38 -17 -80 -33 -92 -37 -13 -3 -23 -11 -23 -16 0 -5 -9
-9 -19 -9 -14 0 -18 -5 -14 -20 3 -11 13 -20 22 -20 14 0 14 2 1 10 -12 8 -12
10 5 11 56 3 103 9 125 15 14 4 28 7 33 6 4 -1 7 3 7 10 0 6 10 1 23 -12 19
-22 22 -35 21 -110 -3 -361 -2 -1645 1 -1649 3 -2 5 310 5 695 0 384 3 710 7
722 4 18 8 20 14 10 5 -7 9 -362 9 -789 0 -860 -1 -839 65 -916 45 -53 121
-90 210 -103 96 -13 2174 -14 2246 0 66 13 151 53 186 88 l26 27 -21 -30 c-44
-66 -109 -99 -222 -115 -102 -14 -101 -22 1 -15 122 8 128 9 122 17 -2 5 3 8
11 8 9 0 16 -4 16 -10 0 -5 7 -10 16 -10 8 0 12 -4 9 -10 -3 -5 -2 -10 4 -10
5 0 13 5 16 10 3 6 1 10 -4 10 -27 0 -6 22 39 42 28 12 50 26 50 30 0 5 4 7 8
4 9 -5 62 100 62 122 0 7 4 12 8 12 8 0 28 65 42 133 4 20 3 58 -1 84 -10 52
-18 164 -24 323 -2 58 -8 133 -14 168 -10 61 -2 440 15 682 6 92 23 197 39
233 5 12 3 17 -8 17 -21 0 -25 8 -32 68 -4 37 0 67 15 113 20 58 20 69 9 151
-6 48 -18 93 -25 99 -20 16 -17 31 11 73 l24 36 -34 -14 -34 -14 -6 52 c-9 73
-5 90 25 94 14 1 45 5 70 9 l45 6 -49 8 c-28 4 -57 4 -66 -1 -15 -8 -18 -3
-24 28 -3 20 -6 203 -6 405 0 306 -3 374 -15 404 -34 80 -48 170 -53 333 -5
168 4 257 47 480 14 73 16 180 16 770 0 627 -1 689 -18 735 -22 65 -63 116
-76 96 -7 -11 -16 -8 -47 16 -51 40 -112 62 -182 68 -99 8 -2144 13 -2207 5z
m2309 -335 c51 -26 77 -62 87 -122 4 -26 8 -1192 8 -2591 1 -2479 1 -2543 -18
-2580 -31 -61 -87 -97 -191 -123 -76 -19 -2168 -19 -2248 1 -73 17 -130 70
-147 135 -10 40 -11 498 -5 2375 4 1279 5 2390 2 2470 -7 202 4 331 31 372 24
36 72 67 120 79 18 4 547 6 1177 6 1124 -2 1146 -2 1184 -22z m197 -1207 c-8
-28 -9 -19 -10 53 -1 47 2 89 7 93 11 12 14 -108 3 -146z m-2797 -1347 c3 -4
3 -32 -1 -60 -7 -63 -23 -49 -23 22 0 43 11 60 24 38z m-4 -712 c0 -11 -4 -17
-10 -14 -5 3 -10 15 -10 26 0 11 5 17 10 14 6 -3 10 -15 10 -26z"/>
<path d="M2126 5515 c-10 -37 -6 -45 22 -46 l27 -1 -25 -10 c-23 -9 -25 -15
-25 -73 0 -58 2 -64 25 -73 l25 -10 -27 -1 c-25 -1 -28 -5 -28 -35 0 -30 4
-35 28 -39 l27 -4 -29 -2 c-27 -1 -28 -3 -22 -33 8 -40 7 -39 42 -32 29 5 29
7 27 62 -2 31 -3 78 -4 104 -1 39 -5 49 -23 54 -20 7 -20 8 3 14 23 5 25 10
23 65 -1 48 1 55 8 35 9 -22 15 -25 60 -24 86 2 88 3 93 27 4 18 5 17 6 -6 1
-27 3 -28 34 -22 40 9 38 6 31 41 -5 28 -7 29 -62 29 -31 -1 -67 -5 -79 -9
-13 -4 -23 -4 -23 1 0 4 -29 8 -64 8 -57 1 -65 -2 -70 -20z"/>
<path d="M2452 5533 c-20 -4 -22 -9 -16 -36 8 -41 7 -40 46 -29 18 5 45 5 60
1 19 -5 28 -3 32 8 11 26 6 53 -8 53 -8 0 -21 3 -30 6 -11 4 -16 0 -16 -14 0
-12 -4 -24 -10 -27 -6 -4 -10 5 -10 19 0 26 -4 27 -48 19z"/>
<path d="M2757 5500 c12 -31 21 -40 40 -40 20 0 23 -5 23 -40 l0 -40 -40 0
c-39 0 -40 -1 -40 -35 0 -34 1 -35 40 -35 39 0 40 1 40 36 0 32 4 37 40 52
l40 17 0 63 0 62 -79 0 -79 0 15 -40z"/>
<path d="M2980 5535 c0 -3 7 -21 14 -40 10 -24 22 -35 35 -35 19 0 21 -6 21
-76 l0 -75 -37 3 c-36 3 -38 4 -35 36 3 31 3 32 -37 32 -40 0 -41 -1 -41 -35
0 -34 1 -35 38 -35 36 0 40 -3 52 -40 l13 -40 104 0 103 0 0 -40 0 -40 -80 0
-80 0 0 -80 0 -80 -35 0 -35 0 0 -75 0 -75 -40 0 c-39 0 -40 1 -40 35 0 39 -3
40 -49 24 -23 -8 -31 -17 -31 -35 0 -21 -4 -24 -39 -24 -36 0 -40 3 -55 40
l-16 40 -60 0 c-33 0 -60 -3 -60 -7 0 -4 5 -22 12 -40 12 -33 13 -33 75 -33
l63 0 0 -40 0 -40 -75 0 c-41 0 -75 -2 -75 -5 0 -3 7 -21 14 -40 l15 -35 180
0 181 0 0 -38 c0 -36 -3 -40 -40 -52 l-40 -13 0 -64 0 -63 -40 0 -40 0 0 40
c0 40 0 40 -39 40 -36 0 -41 3 -52 35 -7 19 -17 35 -21 36 -49 4 -113 0 -112
-7 0 -5 4 -21 8 -36 8 -27 11 -28 72 -28 l64 0 0 -40 0 -40 40 0 40 0 0 -115
0 -115 -40 0 c-36 0 -41 3 -54 35 -15 35 -16 35 -77 35 -54 0 -60 -2 -54 -17
4 -10 10 -26 12 -35 4 -15 17 -18 69 -18 l64 0 0 -80 0 -80 40 0 c40 0 40 0
40 -39 l0 -39 40 15 40 16 0 104 0 103 75 0 75 0 0 -80 0 -80 -35 0 c-40 0
-40 1 -21 -45 15 -34 16 -35 75 -35 l61 0 0 -75 0 -74 78 -3 77 -3 5 -37 5
-36 33 13 c31 14 32 16 32 75 l0 60 40 0 c39 0 40 -1 40 -35 0 -19 5 -35 10
-35 26 0 70 32 70 50 0 18 7 20 80 20 l80 0 0 -35 c0 -34 -1 -35 -40 -35 l-40
0 0 -80 0 -80 74 0 75 0 3 -37 c3 -36 5 -38 41 -41 l37 -3 0 40 0 41 -40 0
-40 0 0 40 0 40 40 0 c22 0 40 2 40 4 0 2 -7 20 -15 40 -12 28 -21 36 -40 36
l-25 0 0 230 0 230 40 0 c40 0 40 0 40 39 0 39 1 40 39 43 l39 3 -15 38 -15
37 -64 0 -64 0 0 -40 0 -40 -75 0 -75 0 0 -40 0 -40 -120 0 -120 0 0 -35 c0
-34 -2 -35 -36 -35 -29 0 -35 -3 -30 -16 3 -9 9 -27 12 -40 4 -17 13 -24 29
-24 19 0 24 -6 27 -35 5 -43 3 -45 -39 -45 -32 0 -33 1 -33 40 l0 40 -80 0
-80 0 0 40 0 40 40 0 40 0 0 75 c0 41 -2 75 -4 75 -2 0 -20 -7 -40 -15 -28
-12 -36 -21 -36 -40 0 -24 -2 -25 -75 -25 l-75 0 0 40 c0 39 1 40 35 40 40 0
40 -1 21 45 -10 24 -22 35 -35 35 -19 0 -21 6 -21 75 0 53 4 75 13 76 6 0 39
1 72 2 l60 2 3 38 c3 36 4 37 43 37 l39 0 0 80 0 80 -36 -15 c-20 -8 -38 -15
-40 -15 -2 0 -4 -11 -4 -25 0 -22 -4 -25 -40 -25 l-40 0 0 40 0 40 40 0 40 0
0 115 0 115 40 0 c39 0 40 -1 40 -35 0 -39 8 -42 50 -20 l30 16 0 99 0 100 35
0 35 0 0 75 0 75 -35 0 -34 0 -3 79 -3 79 -37 -15 c-29 -12 -38 -21 -38 -39 0
-21 -4 -24 -40 -24 l-40 0 0 40 0 40 -75 0 c-41 0 -75 -2 -75 -5z m698 -1437
l3 -118 -121 0 -120 0 0 113 c0 63 3 117 7 121 4 3 57 5 117 4 l111 -3 3 -117z
m-468 -78 l0 -40 -40 0 -40 0 0 40 0 40 40 0 40 0 0 -40z"/>
<path d="M3520 4100 l0 -40 40 0 40 0 0 40 0 40 -40 0 -40 0 0 -40z"/>
<path d="M3360 5500 l0 -40 40 0 40 0 0 40 0 40 -40 0 -40 0 0 -40z"/>
<path d="M3630 5530 c-21 -5 -24 -11 -22 -36 4 -36 2 -35 38 -25 16 4 42 4 58
0 16 -5 33 -6 37 -3 14 8 11 64 -3 64 -7 0 -23 3 -35 6 -20 6 -23 2 -23 -22
l-1 -29 -12 26 c-10 21 -17 24 -37 19z"/>
<path d="M3767 5534 c-13 -14 -8 -64 7 -64 8 0 21 -3 30 -6 11 -4 16 0 16 12
0 15 2 16 9 5 7 -10 29 -15 77 -15 64 0 69 1 74 24 6 25 6 24 12 -5 3 -16 4
-44 1 -62 -5 -31 -4 -33 23 -34 l29 -1 -25 -10 c-25 -10 -25 -13 -27 -113 -2
-99 -1 -103 20 -109 41 -11 47 -7 47 28 0 28 -4 35 -22 39 -19 4 -18 4 5 6 26
1 28 4 25 33 -2 25 -9 34 -28 38 -24 6 -24 7 -4 13 18 6 21 16 22 71 0 57 -2
65 -21 71 l-22 8 23 4 c17 3 22 11 22 36 l0 32 -70 0 c-63 0 -70 -2 -71 -20
-1 -17 -2 -17 -6 -2 -2 9 -10 17 -16 17 -7 0 -22 3 -34 6 -19 5 -23 2 -24 -17
-1 -17 -3 -19 -6 -6 -2 9 -11 17 -18 17 -7 0 -20 2 -27 5 -8 3 -17 2 -21 -1z"/>
<path d="M2597 5523 c-4 -3 -7 -17 -7 -30 0 -19 5 -23 29 -23 28 0 41 14 41
46 0 14 -50 20 -63 7z"/>
<path d="M3530 5500 c0 -27 3 -30 30 -30 27 0 30 3 30 30 0 27 -3 30 -30 30
-27 0 -30 -3 -30 -30z"/>
<path d="M2604 5452 c-7 -4 -12 -33 -11 -69 0 -58 2 -63 26 -72 l26 -9 -27 -1
c-26 -1 -26 -2 -25 -71 1 -60 3 -70 19 -70 10 0 18 -4 18 -10 0 -5 -9 -10 -20
-10 -17 0 -19 -6 -17 -67 2 -63 4 -68 26 -71 42 -6 58 50 19 63 l-23 8 22 4
c21 4 23 9 20 71 -2 61 -4 67 -27 72 l-25 6 26 7 c25 6 26 10 26 72 -1 60 -3
65 -26 74 l-26 9 28 1 c24 1 27 5 27 36 0 30 -3 35 -22 35 -13 0 -28 -4 -34
-8z"/>
<path d="M3530 5448 c0 -7 -3 -23 -6 -35 -6 -20 -2 -23 22 -24 28 0 28 -1 7
-11 -19 -9 -23 -19 -23 -59 0 -26 -3 -54 -6 -62 -3 -10 4 -18 23 -24 l28 -10
-25 -6 c-23 -6 -25 -10 -25 -71 0 -62 1 -65 25 -69 25 -4 25 -4 3 -12 -17 -5
-23 -15 -23 -36 0 -26 4 -29 30 -29 30 0 30 1 30 54 0 30 3 61 6 70 4 11 0 16
-14 16 -29 0 -37 18 -10 22 14 2 22 9 20 18 -5 18 -5 81 0 101 2 9 -7 15 -27
18 -29 4 -30 4 -5 10 23 6 26 13 30 71 4 40 2 68 -5 72 -17 12 -55 9 -55 -4z"/>
<path d="M2280 5345 c0 -27 5 -35 23 -38 l22 -4 -23 -8 c-18 -6 -22 -13 -18
-29 3 -11 6 -24 6 -28 0 -3 8 -9 18 -11 13 -4 11 -5 -5 -6 -18 -1 -23 -7 -23
-30 0 -36 7 -41 42 -34 17 3 28 13 31 27 3 16 5 14 6 -8 1 -27 3 -28 34 -21
32 7 44 8 81 3 13 -2 21 5 27 24 6 23 3 28 -19 37 -25 9 -25 9 -4 10 18 1 22
7 22 35 0 28 -4 35 -22 39 -19 4 -18 5 6 6 24 1 27 4 22 24 -3 12 -6 28 -6 35
0 20 -68 15 -73 -5 -4 -15 -5 -15 -6 -2 -1 13 -14 16 -71 17 l-70 0 0 -33z
m77 -7 c-3 -8 -6 -5 -6 6 -1 11 2 17 5 13 3 -3 4 -12 1 -19z"/>
<path d="M3680 5345 c0 -31 3 -35 28 -36 20 -1 22 -2 7 -6 -31 -7 -38 -19 -31
-48 5 -20 11 -25 26 -20 12 4 20 2 20 -4 0 -6 -9 -11 -19 -11 -25 0 -33 -13
-26 -42 5 -21 12 -23 70 -23 36 0 65 3 65 7 0 3 16 2 36 -4 42 -11 40 -12 49
30 6 30 5 32 -22 33 -16 0 -22 3 -13 6 36 14 40 57 8 68 -22 7 -22 8 5 12 24
4 28 8 23 26 -3 12 -6 27 -6 34 0 8 -22 11 -66 11 -57 -1 -67 -4 -74 -22 -9
-21 -9 -20 -9 2 -1 18 -7 22 -36 22 -33 0 -35 -2 -35 -35z m157 -7 c-3 -8 -6
-5 -6 6 -1 11 2 17 5 13 3 -3 4 -12 1 -19z"/>
<path d="M2848 5287 c-26 -10 -28 -14 -28 -74 l0 -63 -40 0 -40 0 0 -75 c0
-41 4 -75 9 -75 4 0 22 5 40 11 23 8 31 17 31 35 0 21 4 24 40 24 39 0 40 -1
40 -35 0 -40 -1 -40 45 -21 34 15 35 16 35 75 l0 61 -40 0 -40 0 0 75 c0 80
-2 82 -52 62z"/>
<path d="M2145 5143 c-18 -3 -20 -12 -21 -73 l0 -70 33 0 c27 0 33 4 34 23 l0
22 12 -23 c8 -19 17 -23 39 -20 16 3 31 2 33 -2 2 -3 20 -4 39 -2 29 3 36 9
39 31 l4 26 2 -27 c1 -24 5 -28 30 -28 35 0 41 7 34 41 -4 24 -8 25 -74 27
-43 0 -69 -3 -69 -10 0 -7 -5 -6 -15 2 -8 6 -23 9 -35 5 -11 -4 -35 -3 -53 1
-29 7 -30 8 -9 13 13 3 23 9 23 14 -1 4 -1 18 -1 32 0 25 -4 26 -45 18z"/>
<path d="M3397 5133 l-38 -16 2 -58 c1 -33 5 -59 9 -59 4 0 21 5 39 11 30 11
31 12 31 75 0 35 -1 64 -2 63 -2 -1 -20 -8 -41 -16z"/>
<path d="M3996 5135 c-14 -37 -7 -55 22 -56 l27 0 -25 -10 c-13 -6 -41 -7 -62
-4 -35 6 -38 5 -39 -17 l0 -23 -9 23 c-7 16 -18 22 -40 22 -24 0 -30 -4 -31
-22 -1 -17 -2 -19 -6 -6 -5 19 -45 34 -62 23 -6 -3 -11 -19 -11 -34 0 -24 5
-29 30 -33 22 -3 30 -1 30 11 0 10 3 12 8 5 7 -12 82 -24 82 -14 0 3 16 4 35
2 31 -4 35 -2 36 19 1 24 1 24 10 -2 8 -21 15 -25 39 -21 29 4 29 4 29 73 0
51 -4 69 -14 69 -7 0 -20 3 -28 6 -8 3 -17 -2 -21 -11z"/>
<path d="M2444 5062 c-6 -4 -9 -21 -7 -38 5 -30 6 -31 44 -24 21 4 50 5 63 3
21 -4 26 0 32 21 8 31 7 32 -26 41 -22 5 -28 2 -37 -22 l-11 -28 -1 28 c-1 21
-6 27 -23 27 -13 0 -28 -4 -34 -8z"/>
<path d="M3617 5063 c-14 -4 -17 -11 -13 -26 3 -12 6 -25 6 -28 0 -3 24 -6 53
-6 28 -1 59 -2 67 -4 11 -3 15 5 15 31 0 32 -3 35 -32 38 -30 3 -33 1 -34 -25
l-1 -28 -10 28 c-10 27 -16 29 -51 20z"/>
<path d="M2120 4880 c0 -40 0 -40 39 -40 36 0 40 -3 55 -40 l16 -40 60 0 60 0
0 75 c0 41 -2 75 -5 75 -3 0 -22 -7 -41 -15 -29 -12 -35 -19 -31 -35 4 -17 0
-20 -34 -20 -39 0 -39 0 -39 40 l0 40 -40 0 -40 0 0 -40z"/>
<path d="M3290 4805 c0 -66 4 -115 10 -115 36 0 66 30 61 63 0 4 17 7 39 7
l40 0 0 -40 0 -40 -40 0 -40 0 0 -41 0 -41 -115 4 -115 3 0 -77 c0 -43 2 -78
4 -78 2 0 20 7 40 15 28 12 36 21 36 40 0 22 4 25 40 25 l40 0 0 -115 c0 -66
4 -115 10 -115 36 0 66 30 61 63 0 4 17 7 39 7 l40 0 0 40 0 40 40 0 c40 0 40
0 40 -39 l0 -39 40 15 c31 12 40 21 40 40 0 20 5 23 40 23 l40 0 0 75 0 75
-40 0 -40 0 0 80 0 80 38 0 c36 0 40 -3 55 -40 11 -29 21 -40 36 -40 17 0 21
-6 21 -35 0 -39 1 -40 47 -23 24 9 33 18 33 34 0 19 6 23 39 26 l39 3 -15 38
c-12 28 -21 37 -39 37 -21 0 -24 4 -24 40 l0 40 40 0 c38 0 41 -3 56 -40 13
-31 22 -40 40 -40 21 0 24 -5 24 -35 0 -39 8 -42 50 -20 l30 16 0 94 c0 52 -4
95 -9 95 -4 0 -22 -5 -40 -11 -23 -8 -31 -17 -31 -35 0 -21 -4 -24 -40 -24
l-40 0 0 40 0 40 -40 0 c-40 0 -40 0 -40 -40 0 -36 -3 -41 -37 -57 -25 -12
-39 -26 -41 -41 -3 -18 -10 -22 -38 -22 l-34 0 0 75 c0 41 -4 75 -9 75 -4 0
-22 -5 -40 -11 -23 -8 -31 -17 -31 -35 0 -23 -2 -24 -80 -24 l-80 0 0 40 0 40
-75 0 -75 0 0 -115z m230 -200 l0 -75 -80 0 -80 0 0 35 c0 34 1 35 40 35 l40
0 0 40 0 40 40 0 40 0 0 -75z"/>
<path d="M2430 4761 l0 -79 40 15 c31 12 40 21 40 40 0 20 5 23 35 23 39 0 40
1 23 47 -12 33 -13 33 -75 33 l-63 0 0 -79z"/>
<path d="M2120 4720 l0 -40 40 0 40 0 0 40 0 40 -40 0 -40 0 0 -40z"/>
<path d="M2233 4667 c-33 -10 -33 -10 -33 -73 l0 -64 35 0 c34 0 35 -1 35 -40
l0 -40 -75 0 c-41 0 -75 -2 -75 -5 0 -2 8 -20 17 -40 16 -34 18 -35 75 -35 48
0 58 -3 59 -17 4 -59 3 -58 42 -61 35 -3 37 -5 37 -39 0 -28 3 -34 16 -29 9 3
27 9 40 12 22 6 24 11 24 70 l0 64 40 0 c39 0 40 -1 40 -35 0 -19 5 -35 10
-35 26 0 70 32 70 50 0 18 7 20 75 20 41 0 75 2 75 4 0 2 -7 20 -15 40 l-15
36 -100 0 -100 0 0 75 0 74 -117 3 -118 3 -5 35 c-5 35 -6 36 -37 27z m197
-217 l0 -80 -40 0 -40 0 0 80 0 80 40 0 40 0 0 -80z"/>
<path d="M4018 4587 c-19 -7 -28 -18 -28 -34 0 -20 -5 -23 -40 -23 -22 0 -40
-2 -40 -5 0 -2 8 -20 17 -40 12 -25 23 -35 40 -35 20 0 23 -5 23 -40 l0 -40
40 20 40 20 0 95 c0 102 -1 103 -52 82z"/>
<path d="M2133 4258 c13 -32 16 -33 75 -36 34 -2 62 -1 62 1 0 2 -5 18 -11 36
-11 30 -12 31 -75 31 l-64 0 13 -32z"/>
<path d="M3910 4255 c0 -34 1 -35 40 -35 39 0 40 1 40 35 0 34 -1 35 -40 35
-39 0 -40 -1 -40 -35z"/>
<path d="M4018 4198 c-27 -9 -28 -13 -28 -74 l0 -64 36 15 c20 8 38 15 40 15
2 0 4 27 4 60 0 64 -3 67 -52 48z"/>
<path d="M2150 4133 c-25 -4 -26 -7 -26 -73 0 -68 1 -70 26 -71 20 -1 21 -2 5
-6 -25 -6 -35 -21 -35 -50 0 -19 5 -23 34 -23 29 0 34 4 39 27 3 16 1 30 -4
33 -5 4 -5 20 1 40 6 19 10 36 10 37 0 2 -9 3 -20 3 -11 0 -20 5 -20 11 0 8
17 10 50 7 29 -3 50 -1 50 5 0 5 8 6 18 1 9 -4 45 -8 79 -9 60 -2 61 -1 67 28
7 36 9 34 -29 39 -24 2 -30 -1 -36 -22 -7 -24 -7 -24 -8 -2 -1 16 -7 22 -23
23 -120 5 -115 6 -126 -21 l-10 -25 -1 28 c-1 15 -4 26 -8 26 -5 -1 -19 -4
-33 -6z"/>
<path d="M2436 4108 c-7 -37 -9 -34 32 -43 30 -6 32 -5 32 20 0 15 4 24 10 20
6 -3 10 -15 10 -26 0 -16 5 -18 28 -13 36 9 35 8 27 42 -6 28 -9 30 -35 22
-16 -4 -30 -7 -32 -6 -2 2 -17 6 -34 9 -29 6 -32 4 -38 -25z"/>
<path d="M2592 4103 c2 -24 8 -28 36 -31 31 -3 33 -2 30 25 -2 24 -8 28 -36
31 -31 3 -33 2 -30 -25z"/>
<path d="M2590 4026 c0 -28 4 -35 23 -39 22 -4 22 -5 1 -12 -19 -6 -21 -14
-20 -73 l1 -67 30 0 c27 0 30 3 30 30 0 23 -5 30 -25 35 l-25 6 25 7 c23 6 25
11 27 71 2 58 0 65 -20 70 -41 11 -47 7 -47 -28z"/>
<path d="M2287 3973 c-4 -3 -7 -19 -7 -35 0 -22 5 -28 23 -29 15 -1 17 -3 6
-6 -14 -3 -28 -30 -29 -54 0 -4 10 -10 23 -14 l22 -8 -22 -4 c-18 -3 -23 -11
-23 -37 l0 -33 70 1 c51 1 70 5 70 14 0 10 4 9 16 -2 18 -19 64 -21 64 -3 0 6
3 22 6 35 6 19 2 22 -22 23 -27 0 -28 1 -6 9 16 7 22 18 22 40 0 24 -4 30 -22
31 -21 1 -21 1 4 10 22 8 25 14 19 36 -6 24 -11 26 -74 29 -67 3 -67 3 -68
-24 -1 -21 -2 -22 -6 -7 -8 30 -47 47 -66 28z"/>
<path d="M3990 3940 l0 -40 -75 0 c-41 0 -75 -4 -75 -10 0 -28 25 -60 47 -60
20 0 23 -5 23 -40 l0 -40 75 0 c41 0 75 2 75 5 0 3 -7 21 -14 40 -10 24 -22
35 -35 35 -17 0 -21 6 -21 34 0 33 2 35 38 38 35 3 37 5 40 41 l3 37 -40 0
-41 0 0 -40z"/>
<path d="M2120 3865 c0 -31 3 -35 28 -36 l27 -1 -25 -9 c-23 -8 -25 -14 -25
-74 0 -61 1 -65 23 -65 13 0 20 -4 17 -10 -3 -5 -15 -10 -26 -10 -20 0 -23
-10 -13 -45 4 -17 13 -20 67 -20 42 0 65 5 71 14 5 8 11 9 15 4 9 -14 59 -25
66 -14 3 6 18 6 37 0 37 -10 34 -12 42 27 6 27 4 32 -16 38 -40 10 -48 7 -49
-21 -2 -24 -2 -25 -6 -6 -5 26 -27 33 -95 30 -41 -2 -49 -6 -58 -27 -8 -20 -9
-12 -7 37 3 60 2 62 -22 66 l-26 3 27 12 c24 10 27 15 18 36 -5 15 -5 37 0 57
12 41 6 49 -36 49 -32 0 -34 -2 -34 -35z"/>
<path d="M2900 3865 l0 -35 -75 0 c-81 0 -86 -4 -63 -55 7 -16 19 -25 35 -25
20 0 23 -5 23 -40 l0 -40 -40 0 -40 0 0 -40 0 -40 40 0 40 0 0 40 c0 38 3 41
40 56 l40 16 0 64 0 64 40 0 c39 0 40 1 40 35 0 34 -1 35 -40 35 -39 0 -40 -1
-40 -35z"/>
<path d="M2979 3825 c-3 -2 -3 -20 -1 -40 4 -32 7 -35 38 -35 33 0 34 1 34 40
0 39 -1 40 -33 40 -19 0 -36 -2 -38 -5z"/>
<path d="M2599 3818 c-1 -2 -3 -33 -5 -69 -3 -63 -2 -66 24 -76 l27 -11 -27
-1 c-46 -2 -34 -61 12 -61 27 0 28 0 28 70 1 62 -1 70 -18 70 -10 0 -22 5 -25
10 -4 6 5 10 19 10 26 0 32 13 20 44 -5 13 -51 24 -55 14z"/>
<path d="M3168 3733 c-29 -11 -38 -21 -38 -39 0 -24 0 -24 -115 -24 -63 0
-115 -2 -115 -4 0 -2 7 -20 15 -40 l15 -36 140 0 140 0 0 80 c0 44 -1 80 -2
79 -2 0 -20 -7 -40 -16z"/>
<path d="M3364 3673 l1 -78 78 -3 77 -3 0 81 0 80 -79 0 -79 0 2 -77z"/>
<path d="M2436 3637 c-7 -35 -9 -33 31 -40 29 -6 32 -4 36 21 4 26 4 26 12 5
7 -23 29 -29 58 -17 12 4 13 12 6 32 -9 25 -13 27 -73 28 -64 1 -64 1 -70 -29z"/>
<path d="M3990 3629 l0 -40 38 3 c35 3 37 5 40 41 l3 37 -40 0 -41 0 0 -41z"/>
<path d="M1710 7479 c0 -5 5 -7 10 -4 6 3 10 8 10 11 0 2 -4 4 -10 4 -5 0 -10
-5 -10 -11z"/>
<path d="M1654 6950 c0 -146 2 -205 3 -132 2 72 2 192 0 265 -1 72 -3 13 -3
-133z"/>
<path d="M1647 6303 c-4 -7 -12 -80 -16 -162 -5 -82 -12 -154 -15 -160 -4 -6
-9 -58 -13 -115 -4 -83 -2 -112 10 -138 8 -18 18 -79 22 -135 5 -78 11 -103
21 -103 12 0 14 44 13 263 -2 325 -11 566 -22 550z"/>
<path d="M1663 5410 c0 -30 2 -43 4 -27 2 15 2 39 0 55 -2 15 -4 2 -4 -28z"/>
<path d="M4610 5065 c0 -9 6 -12 15 -9 8 4 12 10 9 15 -8 14 -24 10 -24 -6z"/>
<path d="M5702 2266 c-32 -18 -38 -26 -20 -26 9 0 26 9 39 20 27 22 16 25 -19
6z"/>
<path d="M1662 2075 c0 -16 2 -22 5 -12 2 9 2 23 0 30 -3 6 -5 -1 -5 -18z"/>
<path d="M1671 1984 c0 -11 3 -14 6 -6 3 7 2 16 -1 19 -3 4 -6 -2 -5 -13z"/>
<path d="M1681 1944 c0 -11 3 -14 6 -6 3 7 2 16 -1 19 -3 4 -6 -2 -5 -13z"/>
<path d="M5510 1820 c0 -5 4 -10 9 -10 6 0 13 5 16 10 3 6 -1 10 -9 10 -9 0
-16 -4 -16 -10z"/>
<path d="M5452 1778 c-7 -7 -12 -16 -12 -21 0 -5 7 -1 16 8 9 9 14 18 12 20
-2 3 -10 -1 -16 -7z"/>
<path d="M5449 1723 c-13 -16 -12 -17 4 -4 9 7 17 15 17 17 0 8 -8 3 -21 -13z"/>
<path d="M5381 1699 c-39 -33 -38 -50 2 -19 14 11 30 20 36 20 6 0 11 4 11 9
0 21 -17 18 -49 -10z"/>
<path d="M5850 1609 c0 -5 -4 -8 -9 -5 -4 3 -18 -3 -30 -13 -42 -37 -19 -43
34 -8 37 24 44 37 20 37 -8 0 -15 -5 -15 -11z"/>
<path d="M6005 1588 c-4 -18 -7 -39 -6 -46 1 -9 -6 -11 -26 -7 -18 4 -23 3
-15 -2 7 -6 10 -17 6 -26 -7 -20 7 -22 24 -5 9 9 12 9 12 0 0 -7 -4 -12 -10
-12 -5 0 -10 -7 -10 -15 0 -8 7 -15 15 -15 8 0 15 -4 15 -10 0 -5 6 -10 14
-10 8 0 17 -7 20 -16 5 -13 9 -14 21 -4 9 8 15 8 15 2 0 -16 40 -26 53 -13 15
15 27 14 27 -4 0 -8 -3 -15 -7 -15 -5 0 -9 -12 -9 -28 -1 -15 1 -21 3 -14 4 9
8 10 18 2 15 -12 65 -3 65 12 0 5 -9 6 -20 3 -14 -5 -20 -2 -20 10 0 12 6 14
28 9 22 -5 25 -4 15 7 -18 19 -16 32 9 59 l22 23 -27 -5 c-27 -5 -31 0 -28 35
4 31 -29 32 -55 1 -13 -16 -23 -24 -24 -17 0 6 6 18 13 25 8 7 17 27 21 43 6
24 5 28 -5 18 -15 -15 -49 -17 -49 -3 0 5 -7 7 -16 3 -14 -5 -16 -1 -12 20 6
30 -18 39 -29 11 -5 -15 -7 -15 -15 0 -14 25 -25 19 -33 -16z m75 -63 c0 -8
-4 -15 -10 -15 -5 0 -7 7 -4 15 4 8 8 15 10 15 2 0 4 -7 4 -15z"/>
<path d="M6180 1550 c-12 -8 -10 -10 8 -10 13 0 20 4 17 10 -7 12 -6 12 -25 0z"/>
<path d="M6231 1535 c1 -19 18 -51 18 -35 0 8 -4 22 -9 30 -5 8 -9 11 -9 5z"/>
<path d="M6246 1421 c-8 -12 3 -41 15 -41 12 0 12 37 0 45 -5 3 -12 1 -15 -4z"/>
</g>
</svg>
